<svg 
   xmlns="http://www.w3.org/2000/svg"
   version="1.1"
   viewBox="0 0 475.00001 238.74999"
>
 <g id="layer1" transform="translate(-471.07 -810.13)">
  <path id="path3408" d="m505.48 1044.8c-1.1126-3.4151-19.427-84.165-19.42-85.625 0.005-1.0694 2.2931-1.5625 7.2494-1.5625h7.242l1.3582 6.5625c0.74699 3.6094 3.7713 18.275 6.7207 32.59s5.7436 25.284 6.2093 24.375c0.46576-0.9087 4.397-15.574 8.7361-32.59l7.8892-30.938h6.3977 6.3977l8.0516 32.477c4.4284 17.862 8.4077 32.065 8.8431 31.562 0.43532-0.503 3.4486-14.133 6.6961-30.29 3.2475-16.156 6.1815-30.359 6.5198-31.562 0.4989-1.774 2.0424-2.1875 8.1665-2.1875 7.3935 0 7.5352 0.0641 6.7811 3.0686-1.796 7.1558-19.501 84.281-19.501 84.949 0 0.4029-3.3486 0.7325-7.4412 0.7325-7.3394 0-7.4567-0.056-8.5685-4.0828-0.62001-2.2455-4.4084-16.667-8.4186-32.048-8.5018-32.608-6.4185-33.598-17.512 8.3186l-7.3604 27.812h-7.264c-4.7064 0-7.4433-0.5502-7.7731-1.5625zm96.837-42.812v-44.375h7.5 7.5v44.375 44.375h-7.5-7.5v-44.375zm33.75 0v-44.375h7.8479 7.8479l19.34 30.805 19.34 30.805 0.33434-30.805 0.33434-30.805h8.1032 8.1032v44.375 44.375h-7.959-7.959l-19.228-30.617-19.228-30.617-0.33434 30.617-0.33433 30.617h-8.1032-8.1032v-44.375zm88.75 0v-44.604l18.438 0.46169c21.675 0.54276 28.124 2.6332 36.645 11.877 8.7702 9.5145 10.536 14.93 10.521 32.266-0.0154 17.622-2.257 24.329-10.989 32.876-9.1474 8.9542-14.948 10.763-36.177 11.279l-18.438 0.4487v-44.604zm37.538 29.062c3.062-1.5469 6.8048-4.6754 8.3172-6.9521 5.7491-8.6543 6.9047-28.71 2.2907-39.755-4.3884-10.505-10.987-14.21-25.333-14.223l-7.8125-0.007v31.875 31.875h8.4851c6.3165 0 9.908-0.7188 14.052-2.8125zm43.712-29.062v-44.375h28.75 28.75v6.25 6.25h-20.625-20.625v12.5 12.5h18.125 18.125v6.25 6.25h-18.125-18.125v13.125 13.125h21.25 21.25v6.25 6.25h-29.375-29.375v-44.375zm71.25-0.1238v-44.499l21.562 0.47029c24.427 0.53278 30.362 2.1619 36.316 9.9683 3.8895 5.0994 6.2334 14.617 5.1397 20.871-1.174 6.713-6.1351 14.592-11.132 17.681-2.4123 1.4909-4.3861 2.94-4.3861 3.2202 0 0.5126 11.431 21.584 17.074 31.474l3.0313 5.3125h-8.5471-8.5471l-8.6931-16.562-8.6931-16.562-9.0625-0.3673-9.0625-0.3672v16.93 16.93h-7.5-7.5v-44.499zm39.986-3.6192c5.322-2.7521 7.5138-6.6581 7.5138-13.39 0-4.809-0.7001-6.7361-3.6454-10.034-3.5963-4.0272-3.8153-4.088-16.25-4.5119l-12.605-0.42962v15.117 15.117h10.687c7.0366 0 11.921-0.63804 14.299-1.8679zm-408.8-98.585c-12.001-3.2368-20.857-11.556-22.09-20.751l-0.67691-5.0468h7.6646c6.0888 0 7.6646 0.39825 7.6646 1.9371 0 3.9306 3.7679 9.0366 8.2315 11.155 3.3833 1.6055 6.7317 2.0426 12.723 1.6611 6.9839-0.44471 8.5492-1.003 11.088-3.955 1.9057-2.2155 2.9566-5.0114 2.9566-7.866 0-6.4088-4.9968-10.481-18.277-14.893-21.096-7.01-29.159-14.51-29.203-27.163-0.0247-7.2115 2.108-11.693 8.0462-16.907 9.755-8.565 28.302-9.9555 40.974-3.072 7.4902 4.0687 13.46 12.372 13.46 18.723v4.1303h-7.5c-7.154 0-7.5-0.14327-7.5-3.1053 0-1.7079-1.6133-4.9109-3.5852-7.1178-3.2051-3.5871-4.4309-4.0602-11.562-4.4626-9.3128-0.52545-15.475 2.3771-16.873 7.9474-1.9649 7.8288 3.4924 13.303 18.025 18.081 15.505 5.0973 23.345 10.214 27.322 17.831 2.4107 4.6167 2.3743 15.847-0.0667 20.567-5.8925 11.395-23.982 16.849-40.821 12.307zm56.312-43.973v-44.426l10.281 0.36306 10.281 0.36305 12.507 33.4c6.8788 18.37 12.851 32.995 13.271 32.5 0.4204-0.49475 6.268-15.665 12.995-33.712l12.23-32.812h9.8424 9.8424v44.375 44.375h-7.6972-7.6972l0.70319-33.438c0.42558-20.237 0.25866-32.451-0.42281-30.938-0.6193 1.375-6.404 16.281-12.855 33.125l-11.729 30.625-5.5527 0.37186-5.5527 0.37186-12.302-32.247c-6.766-17.736-12.632-32.642-13.036-33.124-0.40377-0.48234-0.5521 14.002-0.32961 32.188l0.40452 33.064h-7.592-7.592v-44.426zm103.78 44.113c0.016-0.17187 7.4953-20 16.621-44.062l16.592-43.75 7.1294-0.37488c3.9212-0.20618 7.1294-0.16846 7.1294 0.0838 0 0.25229 7.3125 19.746 16.25 43.32s16.25 43.391 16.25 44.038c0 0.64809-3.4416 1.0095-7.661 0.80456l-7.661-0.37215-3.4314-9.375-3.4314-9.375-17.43-0.34543-17.43-0.34543-3.4926 10.033-3.4926 10.033h-7.9852c-4.3919 0-7.9722-0.14062-7.9562-0.3125zm52.484-33.125c0.0388-2.723-11.787-35.268-12.51-34.429-0.46943 0.54506-3.2687 8.0223-6.2206 16.616-2.9519 8.5938-5.6334 16.328-5.9588 17.188-0.44903 1.186 2.453 1.5625 12.042 1.5625 6.9486 0 12.64-0.42187 12.647-0.9375zm38.737-11.061v-44.499l21.562 0.4703c24.427 0.53277 30.362 2.1619 36.316 9.9683 3.8895 5.0994 6.2334 14.617 5.1397 20.871-1.174 6.713-6.1351 14.592-11.132 17.681-2.4123 1.4909-4.3861 2.94-4.3861 3.2202 0 0.5126 11.431 21.584 17.074 31.474l3.0313 5.3125h-8.5471-8.5471l-8.6931-16.562-8.6931-16.562-9.0625-0.36726-9.0625-0.36726v16.93 16.93h-7.5-7.5v-44.499zm39.986-3.6192c5.322-2.7521 7.5138-6.6581 7.5138-13.391 0-4.809-0.7001-6.7361-3.6454-10.034-3.5963-4.0272-3.8153-4.088-16.25-4.5118l-12.605-0.42964v15.117 15.117h10.687c7.0366 0 11.921-0.63801 14.299-1.8679zm56.264 9.9929v-38.125h-13.75-13.75v-6.25-6.25h35.625 35.625v6.25 6.25h-14.375-14.375v38.125 38.125h-7.5-7.5v-38.125z"/>
 </g>
</svg>
