<svg 
    xmlns="http://www.w3.org/2000/svg"
    version="1.1"
    viewBox="0 0 475.00001 238.74999"
>
 <g id="layer1" transform="translate(-456.79 -818.7)">
  <path id="path3387" d="m772.78 1054.5c-8.8231-2.7918-15.388-8.6858-19.914-17.879-4.1636-8.4574-4.2019-8.6951-4.2019-26.062 0-16.235 0.23785-18.033 3.2288-24.409 5.9609-12.707 15.534-19.562 29.083-20.828 18.503-1.7279 33.376 8.4483 36.473 24.956l0.86847 4.6294-7.3266-0.0139-7.3266-0.0139-2.5-6.4274c-3.2509-8.3579-8.3555-11.416-17.864-10.702-8.2672 0.62063-12.449 3.5578-16.511 11.597-2.8176 5.5766-3.1244 7.6606-3.1186 21.185 0.008 17.245 1.3108 22.132 7.5033 28.134 3.7082 3.5941 5.3825 4.2722 11.539 4.6736 10.166 0.6628 15.148-2.2337 18.451-10.728l2.5-6.4275 7.1875-0.014c6.6281-0.013 7.1866 0.2049 7.1753 2.7986-0.0215 4.9597-5.7661 15.366-10.764 19.499-8.4203 6.9635-23.306 9.5662-34.483 6.0295zm-266.58-1.1539c-1.1126-3.4151-19.427-84.165-19.42-85.625 0.005-1.0694 2.2931-1.5625 7.2494-1.5625h7.242l1.3582 6.5625c0.74699 3.6094 3.7713 18.275 6.7207 32.59s5.7436 25.284 6.2093 24.375c0.46576-0.9087 4.397-15.574 8.7361-32.59l7.8892-30.938h6.3977 6.3977l8.0516 32.477c4.4284 17.862 8.4077 32.066 8.8431 31.562 0.43532-0.503 3.4486-14.133 6.6961-30.29 3.2475-16.156 6.1815-30.359 6.5198-31.563 0.4989-1.774 2.0424-2.1875 8.1665-2.1875 7.3935 0 7.5352 0.0641 6.7811 3.0686-1.796 7.1558-19.501 84.281-19.501 84.949 0 0.4029-3.3486 0.7325-7.4412 0.7325-7.3394 0-7.4567-0.056-8.5686-4.0828-0.62002-2.2455-4.4084-16.667-8.4186-32.048-8.5018-32.608-6.4185-33.598-17.512 8.3186l-7.3604 27.812h-7.264c-4.7064 0-7.4433-0.5502-7.7731-1.5625zm85.617 1.25c0.016-0.1719 7.4953-20 16.621-44.062l16.592-43.75 7.1294-0.37488c3.9212-0.20618 7.1294-0.16846 7.1294 0.0839 0 0.25229 7.3125 19.746 16.25 43.32s16.25 43.391 16.25 44.038c0 0.6481-3.4416 1.0095-7.661 0.8046l-7.661-0.3722-3.4314-9.375-3.4314-9.375-17.43-0.3454-17.43-0.3454-3.4926 10.033-3.4926 10.033h-7.9852c-4.3919 0-7.9722-0.1406-7.9562-0.3125zm52.484-33.125c0.0387-2.723-11.787-35.268-12.51-34.429-0.46942 0.54507-3.2687 8.0223-6.2206 16.616s-5.6334 16.328-5.9588 17.188c-0.44902 1.1859 2.453 1.5625 12.042 1.5625 6.9486 0 12.64-0.4219 12.647-0.9375zm52.487-4.6875v-38.125h-13.75-13.75v-6.25-6.25h35.625 35.625v6.25 6.25h-14.375-14.375v38.125 38.125h-7.5-7.5v-38.125zm135-6.25v-44.375h8.125 8.125v18.75 18.75h19.375 19.375v-18.75-18.75h8.125 8.125v44.375 44.375h-8.125-8.125v-19.375-19.375h-19.375-19.375v19.375 19.375h-8.125-8.125v-44.375zm-135-102.55c-15.491-4.81-24.961-21.391-24.961-43.704 0-22.66 9.5284-39.021 25.5-43.786 19.137-5.7095 37.269 2.9853 44.542 21.36 2.5102 6.3414 2.9396 9.617 2.9396 22.426s-0.42935 16.085-2.9396 22.426c-7.2949 18.429-25.93 27.225-45.081 21.278zm20.989-13.069c4.4774-2.0321 5.914-3.6292 8.6893-9.66 2.911-6.3257 3.3326-8.8598 3.3857-20.35 0.0715-15.447-2.1828-22.87-8.6776-28.572-7.5745-6.6505-17.423-6.6734-24.957-0.0581-6.4516 5.6646-8.8092 13.186-8.7785 28.005 0.0285 13.753 1.5938 19.894 6.582 25.822 6.1742 7.3376 14.484 9.0212 23.756 4.813zm64.636 13.9c-7.0429-1.8411-13.264-5.5087-16.467-9.7086-6.082-7.9739-6.5443-11.222-6.6032-46.389l-0.0549-32.812h7.5 7.5l0.0705 31.562c0.047 21.025 0.56866 33.009 1.5625 35.894 4.6437 13.482 28.34 13.482 32.984 0 0.99384-2.8855 1.5155-14.869 1.5625-35.894l0.0706-31.562h7.5724 7.5724l-0.38492 34.789-0.38492 34.789-3.75 6.0156c-5.4184 8.6921-14.289 13.429-26.071 13.922-4.9107 0.20567-10.616-0.0672-12.679-0.60636zm-161.88-16.783v-16.622l-13.851-26.04c-7.6182-14.322-14.147-26.81-14.509-27.753-0.51624-1.3453 1.1332-1.7131 7.683-1.7131h8.3403l9.9557 20.796c5.4756 11.438 10.186 20.566 10.467 20.284 0.28141-0.28142 5.0339-9.6396 10.561-20.796l10.049-20.284h8.1517c4.4834 0 8.1517 0.23252 8.1517 0.5167 0 0.28419-6.4688 12.648-14.375 27.474l-14.375 26.957v16.901 16.901h-8.125-8.125v-16.622zm221.25-27.876v-44.499l21.562 0.4703c24.427 0.53277 30.362 2.1619 36.316 9.9683 3.8895 5.0994 6.2334 14.617 5.1397 20.871-1.174 6.713-6.1351 14.592-11.132 17.681-2.4123 1.4909-4.3861 2.94-4.3861 3.2202 0 0.51259 11.431 21.584 17.074 31.474l3.0313 5.3125h-8.5471-8.5471l-8.6931-16.562-8.6931-16.562-9.0625-0.36726-9.0625-0.36726v16.93 16.93h-7.5-7.5v-44.499zm39.986-3.6192c5.322-2.7521 7.5138-6.6581 7.5138-13.391 0-4.8091-0.7001-6.7361-3.6454-10.034-3.5963-4.0272-3.8153-4.088-16.25-4.5118l-12.605-0.42964v15.117 15.117h10.687c7.0366 0 11.921-0.63801 14.299-1.8679z"/>
 </g>
</svg>
