<svg
   xmlns="http://www.w3.org/2000/svg"
   version="1.1"
   viewBox="0 0 616.779 513.887"
>
   <g transform="translate(-17.723 -15.058)">
      <path
         d="M44.644 528.15c0-.86-26.29-114.96-26.88-116.66-.405-1.168 2.066-1.563 9.775-1.563h10.317l8.573 41.562c4.716 22.86 8.956 42.625 9.423 43.922.82 2.28 3.511-7.357 17.936-64.233l5.23-20.625 8.756-.362 8.756-.36 11.149 44.71c6.132 24.59 11.32 44.158 11.532 43.485.43-1.372 17.933-86.91 17.933-87.636 0-.915 20-.44 20.038.475.02.516-6.026 27.254-13.438 59.42l-13.475 58.481-9.922-.356-9.923-.357-10.315-39.375a40259.77 40259.77 0 01-11.076-42.335c-.418-1.628-.997-2.724-1.285-2.436-.289.289-4.797 16.527-10.018 36.085-5.221 19.558-10.342 38.514-11.378 42.123l-1.885 6.563h-9.912c-5.45 0-9.91-.236-9.91-.525zm130-58.85v-59.375h20v118.75h-20V469.3zm46.25-.05v-59.427l10.255.364 10.255.363 26.308 41.79 26.308 41.79.33-42.103.328-42.103h19.967v118.75l-10.312-.029-10.312-.029-26.25-41.822-26.25-41.822-.33 41.85-.328 41.85h-19.967v-59.426zm118.75.068v-59.623l24.062.496c21.39.442 24.865.813 31.29 3.345 14.196 5.594 24.379 16.251 29.747 31.13 2.615 7.247 3.025 10.587 3.025 24.634 0 13.625-.455 17.562-2.818 24.375-5.06 14.592-15.797 25.833-29.954 31.364-6.378 2.492-10.057 2.887-31.29 3.363l-24.062.539v-59.623zm49.46 39.636c7.286-3.722 13.813-11.501 16.094-19.181 2.57-8.653 2.617-32.132.083-40.666-2.647-8.914-8.097-15.834-15.164-19.255-4.945-2.394-8.1-2.918-17.925-2.979l-11.924-.073-.33 41.24c-.182 22.682-.03 42.024.338 42.98 1.07 2.79 22.301 1.266 28.827-2.068zm60.54-39.654v-59.375h76.25v16.25h-56.25v33.75h48.75v16.25h-48.75v36.25h57.5v16.25h-77.5V469.3zm95 0v-59.375h24.313c13.372 0 27.294.632 30.938 1.405 13.34 2.83 22.622 9.65 27.012 19.845 3.01 6.99 2.624 23.203-.704 29.543-3.178 6.056-9.089 12.262-14.19 14.901-1.99 1.029-3.618 2.376-3.618 2.993s5.874 11.993 13.054 25.28l13.054 24.158-10.752.364c-5.914.2-11.17-.08-11.678-.625-.51-.544-6.105-10.994-12.433-23.222l-11.507-22.233-11.431.358-11.431.357-.34 22.812-.342 22.812H544.646v-59.375zm53.412-5.58c6.89-3.128 10.328-8.758 10.332-16.92.004-7.93-3.143-14.207-8.743-17.443-3.723-2.15-6.613-2.53-19.375-2.543l-15-.014-.345 19.688-.344 19.688 14.094-.028c11.187-.022 15.185-.522 19.381-2.427zm-147.33-132.36c-16.062-5.323-26.584-17.63-31.158-36.443-2.466-10.145-2.103-37.48.624-46.875 7.863-27.1 30.1-40.973 57.206-35.69 18.6 3.625 31.21 16.468 34.123 34.752l.846 5.312h-20.042l-1.941-6.678c-3.67-12.622-9.993-17.392-23.215-17.512-13.208-.12-21.594 6.177-26.388 19.815-2.685 7.637-2.313 43.174.528 50.54 5.09 13.19 11.895 18.066 25.213 18.066 13.376 0 19.235-3.983 23.226-15.79l2.22-6.566 10.238-.366 10.24-.365-.83 4.74c-1.388 7.943-7.94 19.932-13.484 24.678-11.011 9.425-32.69 13.257-47.406 8.38zm-353.58.532c0-.86-26.29-114.96-26.88-116.66-.405-1.168 2.066-1.563 9.775-1.563h10.317l8.574 41.562c4.715 22.86 8.955 42.624 9.422 43.921.82 2.28 3.511-7.356 17.936-64.233l5.23-20.625 8.756-.36 8.756-.362 11.149 44.71c6.132 24.591 11.32 44.16 11.532 43.486.43-1.372 17.933-86.91 17.933-87.636 0-.915 20-.44 20.038.475.02.516-6.026 27.254-13.438 59.42l-13.475 58.481-9.922-.356-9.923-.357-10.315-39.375a40259.77 40259.77 0 01-11.076-42.335c-.418-1.628-.997-2.724-1.285-2.436-.289.289-4.797 16.527-10.018 36.085-5.221 19.558-10.342 38.514-11.378 42.123l-1.885 6.563h-9.912c-5.45 0-9.91-.236-9.91-.525zm114.18-.41c.316-.516 10.267-26.531 22.112-57.812s21.813-57.601 22.151-58.487c.444-1.165 3.206-1.512 9.945-1.25l9.33.362 19.739 52.02c10.857 28.611 20.933 55.211 22.393 59.111l2.653 7.092-10.76-.361-10.76-.362-2.996-8.125a7475.248 7475.248 0 00-4.97-13.438l-1.972-5.312h-45.82l-4.8 13.743-4.798 13.743-11.011.006c-6.056.004-10.752-.415-10.436-.93zm70.822-43.495c0-1.066-15.168-44.738-16.194-46.625-.55-1.012-4.062 7.447-8.822 21.25-4.349 12.613-8.154 23.635-8.454 24.494-.42 1.2 3.396 1.562 16.462 1.562 9.354 0 17.009-.307 17.009-.682zm68.75-6.818v-51.25h-36.25v-16.25h93.75v16.25h-36.25v102.5h-21.25v-51.25zm180-8.125V213.67h20v50h53.75v-50h20v118.75h-20v-52.5h-53.75v52.5h-20v-59.375zm-416.25-136.92c-8.89-1.86-20.713-8.306-25.505-13.904-4.434-5.18-8.245-14.147-8.245-19.399 0-2.794.372-2.902 9.982-2.902h9.982l1.416 5.626c2.703 10.732 13.334 16.472 28.307 15.282 11.96-.95 18.154-6.378 18.154-15.908 0-9.57-5.194-13.918-24.09-20.17-22.06-7.303-31.612-13.5-36.774-23.857-12.14-24.362 11.03-48.626 43.533-45.591 20.386 1.904 35.035 13.794 37.726 30.623l.838 5.241h-20.224l-1.4-5.197c-2.737-10.166-12.775-15.845-25.38-14.357-8.105.957-13.446 4.243-16.29 10.024-2.016 4.097-2.14 5.47-.882 9.672 1.925 6.423 7.64 10.156 23.738 15.504 30.427 10.107 41.754 21.883 39.748 41.32-1.282 12.426-8.857 21.402-22.13 26.227-6.71 2.439-24.629 3.411-32.5 1.764zm73.75-59.373V17.334l13.296.355 13.296.355 16.899 44.742c9.295 24.608 17.284 44.296 17.755 43.75.47-.546 6.09-15.055 12.488-32.242 6.398-17.188 13.859-37.016 16.58-44.062l4.947-12.812h25.99v118.75h-20.4l.855-43.1c.47-23.704 1.205-44.094 1.634-45.312.513-1.457.36-1.786-.448-.963-.675.687-8.773 21.076-17.996 45.307l-16.769 44.057-7.5-.02-7.5-.018-13.695-35.913c-7.54-19.764-15.24-39.863-17.12-44.675l-3.423-8.75.759 44.688.758 44.687H188.4V76.74zm136.68 58.48c.316-.515 10.267-26.53 22.112-57.812s21.813-57.6 22.151-58.487c.444-1.164 3.206-1.512 9.945-1.25l9.33.362 19.739 52.02c10.857 28.611 20.933 55.211 22.393 59.111l2.653 7.092-10.76-.361-10.76-.361-2.996-8.125a7475.248 7475.248 0 00-4.97-13.438l-1.972-5.313h-45.82l-4.8 13.743-4.798 13.743-11.011.006c-6.056.004-10.752-.415-10.436-.93zM395.9 91.736c0-1.066-15.168-44.738-16.194-46.625-.55-1.012-4.062 7.447-8.822 21.25-4.349 12.613-8.154 23.635-8.454 24.494-.42 1.2 3.396 1.563 16.462 1.563 9.354 0 17.009-.307 17.009-.683zm51.25-14.943V17.418h24.313c13.372 0 27.294.633 30.938 1.406 13.34 2.83 22.622 9.65 27.012 19.845 3.01 6.99 2.624 23.203-.704 29.543-3.178 6.055-9.089 12.262-14.19 14.9-1.99 1.03-3.618 2.376-3.618 2.994 0 .617 5.874 11.993 13.054 25.28l13.054 24.158-10.752.364c-5.914.2-11.17-.081-11.678-.625-.51-.544-6.105-10.994-12.433-23.222l-11.507-22.233-11.431.357-11.431.358-.34 22.812-.342 22.812H447.152V76.792zm53.412-5.58c6.89-3.127 10.328-8.758 10.332-16.92.004-7.929-3.143-14.207-8.743-17.443-3.723-2.15-6.613-2.53-19.375-2.542l-15-.015-.345 19.688-.344 19.688 14.094-.027c11.187-.022 15.185-.523 19.381-2.428zM575.9 84.918v-51.25h-36.25v-16.25h93.75v16.25h-36.25v102.5H575.9v-51.25z"
      ></path>
   </g>
</svg>
